<svg id="Ebene_1" data-name="Ebene 1" xmlns="http://www.w3.org/2000/svg" viewBox="0 0 44 44"><defs><style>.cls-2{mask:url(#mask)}</style><mask id="mask" x="0" y="0" width="44" height="44" maskUnits="userSpaceOnUse"><g id="mask-2"><path id="path-1" d="M16 20a2 2 0 1 0 2 2 2 2 0 0 0-2-2zm12 0a2 2 0 1 0 2 2 2 2 0 0 0-2-2zm-6 0a2 2 0 1 0 2 2 2 2 0 0 0-2-2z" fill="#fff"/></g></mask></defs><g id="M-_-Icons-_-Text-_-Mehr-lesen" data-name="M-/-Icons-/-Text-/-Mehr-lesen"><g id="Background-Color-_-Colors-_-RA-Black-Mask" data-name="Background-Color-+-Colors-/-RA-Black-Mask"><g id="Mask-3" data-name="Mask"><path id="path-1-3" data-name="path-1" d="M16 20a2 2 0 1 0 2 2 2 2 0 0 0-2-2zm12 0a2 2 0 1 0 2 2 2 2 0 0 0-2-2zm-6 0a2 2 0 1 0 2 2 2 2 0 0 0-2-2z"/></g><g class="cls-2"><g id="Colors-_--Tranzparent" data-name="Colors-/--Tranzparent"><path fill="#fdfdfd" fill-opacity="0" d="M0 0h44v44H0z" id="Color-Rectangle"/></g></g><g class="cls-2"><g id="Colors-_-RA-Black" data-name="Colors-/-RA-Black"><path d="M0 0h44v44H0z" id="Color-Rectangle-2" data-name="Color-Rectangle"/></g></g></g></g></svg>
