<svg width="44" height="44" xmlns="http://www.w3.org/2000/svg" xmlns:xlink="http://www.w3.org/1999/xlink"><defs><path d="M22.857 20.114h-1.463l-.548-.548c1.828-2.012 2.925-4.755 2.925-7.68A11.862 11.862 0 0 0 11.886 0 11.862 11.862 0 0 0 0 11.886 11.862 11.862 0 0 0 11.886 23.77c2.925 0 5.668-1.097 7.68-2.925l.548.548v1.463L29.257 32 32 29.257l-9.143-9.143zm-10.971 0a8.194 8.194 0 0 1-8.229-8.228 8.194 8.194 0 0 1 8.229-8.229 8.194 8.194 0 0 1 8.228 8.229 8.194 8.194 0 0 1-8.228 8.228z" id="a"/></defs><g transform="translate(6 6)" fill="none" fill-rule="evenodd"><mask id="b" fill="#fff"><use xlink:href="#a"/></mask><use fill="#000" fill-rule="nonzero" xlink:href="#a"/><g mask="url(#b)" fill="#000"><path d="M-7-7h45v45H-7z"/></g></g></svg>