<?xml version="1.0" encoding="UTF-8"?>
<svg width="44px" height="44px" viewBox="0 0 44 44" version="1.1" xmlns="http://www.w3.org/2000/svg" xmlns:xlink="http://www.w3.org/1999/xlink">
    <defs>
        <path d="M26.25,8.4375 L33.75,0.9375 L33.75,21.5625 L26.25,14.0625 L26.25,20.625 C26.25,21.65625 25.40625,22.5 24.375,22.5 L1.875,22.5 C0.84375,22.5 0,21.65625 0,20.625 L0,1.875 C0,0.84375 0.84375,0 1.875,0 L24.375,0 C25.40625,0 26.25,0.84375 26.25,1.875 L26.25,8.4375 Z M3,3 L3,19 L23,19 L23,3 L3,3 Z" id="path-1"></path>
    </defs>
    <g id="A-/-Icons-/-ItemBundle-/-Film" stroke="none" stroke-width="1" fill="none" fill-rule="evenodd">
        <g id="Colors-/--Tranzparent" fill="#FDFDFD" fill-opacity="0">
            <rect id="Color-Rectangle" x="0" y="0" width="44" height="44"></rect>
        </g>
        <g id="Icon-Color" transform="translate(5.000000, 11.000000)">
            <mask id="video-mask-2" fill="white">
                <use xlink:href="#path-1"></use>
            </mask>
            <use id="Combined-Shape" fill="#000000" fill-rule="nonzero" xlink:href="#path-1"></use>
            <g id="Colors-/-RA-Black" mask="url(#video-mask-2)" fill="#000000">
                <g transform="translate(-5.000000, -11.000000)" id="Color-Rectangle">
                    <rect x="0" y="0" width="44" height="44"></rect>
                </g>
            </g>
        </g>
    </g>
</svg>
